<svg xmlns="http://www.w3.org/2000/svg" xmlns:xlink="http://www.w3.org/1999/xlink" contentStyleType="text/css" data-diagram-type="DESCRIPTION" height="1256px" preserveAspectRatio="none" style="width:1638px;height:1256px;background:#FFFFFF;" version="1.1" viewBox="0 0 1638 1256" width="1638px" zoomAndPan="magnify"><title>4-Layer Library Architecture
Hexagonal (Ports &amp; Adapters) + Clean + DDD</title><defs/><g><g class="title" data-source-line="6"><text fill="#000000" font-family="Verdana" font-size="22" font-weight="bold" lengthAdjust="spacing" textLength="350.5928" x="639.2036" y="37.1182">4-Layer Library Architecture</text><text fill="#000000" font-family="Verdana" font-size="22" font-weight="bold" lengthAdjust="spacing" textLength="564.0938" x="532.4531" y="63.8555">Hexagonal (Ports &amp; Adapters) + Clean + DDD</text></g><!--cluster API--><g class="cluster" data-entity="API" data-source-line="8" data-uid="ent0002" id="cluster_API"><path d="M137.5,85.4746 L343.4482,85.4746 A3.75,3.75 0 0 1 345.9482,87.9746 L352.9482,108.4893 L804.5,108.4893 A2.5,2.5 0 0 1 807,110.9893 L807,400.0746 A2.5,2.5 0 0 1 804.5,402.5746 L137.5,402.5746 A2.5,2.5 0 0 1 135,400.0746 L135,87.9746 A2.5,2.5 0 0 1 137.5,85.4746" fill="#FFEBCD" style="stroke:#000000;stroke-width:1;"/><line style="stroke:#000000;stroke-width:1;" x1="135" x2="352.9482" y1="108.4893" y2="108.4893"/><text fill="#000000" font-family="Verdana" font-size="14" font-weight="bold" lengthAdjust="spacing" textLength="204.9482" x="139" y="101.5498">API Layer (Public Facade)</text></g><!--cluster Infrastructure--><g class="cluster" data-entity="Infrastructure" data-source-line="20" data-uid="ent0008" id="cluster_Infrastructure"><path d="M849.5,274.4646 L1011.2266,274.4646 A3.75,3.75 0 0 1 1013.7266,276.9646 L1020.7266,297.4793 L1617.5,297.4793 A2.5,2.5 0 0 1 1620,299.9793 L1620,413.1646 A2.5,2.5 0 0 1 1617.5,415.6646 L849.5,415.6646 A2.5,2.5 0 0 1 847,413.1646 L847,276.9646 A2.5,2.5 0 0 1 849.5,274.4646" fill="#E6F3FF" style="stroke:#000000;stroke-width:1;"/><line style="stroke:#000000;stroke-width:1;" x1="847" x2="1020.7266" y1="297.4793" y2="297.4793"/><text fill="#000000" font-family="Verdana" font-size="14" font-weight="bold" lengthAdjust="spacing" textLength="160.7266" x="851" y="290.5398">Infrastructure Layer</text></g><!--cluster Application--><g class="cluster" data-entity="Application" data-source-line="31" data-uid="ent0014" id="cluster_Application"><path d="M13.5,455.6646 L151.2803,455.6646 A3.75,3.75 0 0 1 153.7803,458.1646 L160.7803,478.6793 L690.5,478.6793 A2.5,2.5 0 0 1 693,481.1793 L693,770.2646 A2.5,2.5 0 0 1 690.5,772.7646 L13.5,772.7646 A2.5,2.5 0 0 1 11,770.2646 L11,458.1646 A2.5,2.5 0 0 1 13.5,455.6646" fill="#E8F5E9" style="stroke:#000000;stroke-width:1;"/><line style="stroke:#000000;stroke-width:1;" x1="11" x2="160.7803" y1="478.6793" y2="478.6793"/><text fill="#000000" font-family="Verdana" font-size="14" font-weight="bold" lengthAdjust="spacing" textLength="136.7803" x="15" y="471.7398">Application Layer</text></g><!--cluster Domain--><g class="cluster" data-entity="Domain" data-source-line="44" data-uid="ent0021" id="cluster_Domain"><path d="M735.5,644.6646 L845.082,644.6646 A3.75,3.75 0 0 1 847.582,647.1646 L854.582,667.6793 L1486.5,667.6793 A2.5,2.5 0 0 1 1489,670.1793 L1489,930.3746 A2.5,2.5 0 0 1 1486.5,932.8746 L735.5,932.8746 A2.5,2.5 0 0 1 733,930.3746 L733,647.1646 A2.5,2.5 0 0 1 735.5,644.6646" fill="#FFF9E6" style="stroke:#000000;stroke-width:1;"/><line style="stroke:#000000;stroke-width:1;" x1="733" x2="854.582" y1="667.6793" y2="667.6793"/><text fill="#000000" font-family="Verdana" font-size="14" font-weight="bold" lengthAdjust="spacing" textLength="108.582" x="737" y="660.7398">Domain Layer</text></g><!--entity APIFacade--><g class="entity" data-entity="APIFacade" data-source-line="9" data-uid="ent0003" id="entity_APIFacade"><rect fill="#FFFFFF" height="47.0146" rx="2.5" ry="2.5" style="stroke:#000000;stroke-width:1;" width="67.3301" x="651.33" y="331.5646"/><rect fill="#FFFFFF" height="10" style="stroke:#000000;stroke-width:1;" width="15" x="698.6601" y="336.5646"/><rect fill="#FFFFFF" height="2" style="stroke:#000000;stroke-width:1;" width="4" x="696.6601" y="338.5646"/><rect fill="#FFFFFF" height="2" style="stroke:#000000;stroke-width:1;" width="4" x="696.6601" y="342.5646"/><text fill="#000000" font-family="Verdana" font-size="14" lengthAdjust="spacing" textLength="27.3301" x="666.33" y="365.6398">api/</text></g><!--entity APIDesktop--><g class="entity" data-entity="APIDesktop" data-source-line="10" data-uid="ent0004" id="entity_APIDesktop"><rect fill="#FFFFFF" height="47.0146" rx="2.5" ry="2.5" style="stroke:#000000;stroke-width:1;" width="183.1582" x="535.42" y="150.4646"/><rect fill="#FFFFFF" height="10" style="stroke:#000000;stroke-width:1;" width="15" x="698.5782" y="155.4646"/><rect fill="#FFFFFF" height="2" style="stroke:#000000;stroke-width:1;" width="4" x="696.5782" y="157.4646"/><rect fill="#FFFFFF" height="2" style="stroke:#000000;stroke-width:1;" width="4" x="696.5782" y="161.4646"/><text fill="#000000" font-family="Verdana" font-size="14" lengthAdjust="spacing" textLength="143.1582" x="550.42" y="184.5398">api/adapter/desktop</text></g><g class="entity" data-entity="GMN5" data-source-line="12" data-uid="ent0006" id="entity_GMN5"><path d="M158.69,129.4746 L158.69,218.4712 L455.3116,218.4712 L455.3116,139.4746 L445.3116,129.4746 L158.69,129.4746" fill="#FFFFFF" style="stroke:#000000;stroke-width:1;"/><path d="M445.3116,129.4746 L445.3116,139.4746 L455.3116,139.4746 L445.3116,129.4746" fill="#FFFFFF" style="stroke:#000000;stroke-width:1;"/><text fill="#000000" font-family="Verdana" font-size="13" font-weight="bold" lengthAdjust="spacing" textLength="130.3682" x="164.69" y="147.5444">Public Entry Point</text><text fill="#000000" font-family="Verdana" font-size="13" lengthAdjust="spacing" textLength="251.272" x="164.69" y="163.3438">- Re-exports domain/application types</text><text fill="#000000" font-family="Verdana" font-size="13" lengthAdjust="spacing" textLength="252.2495" x="164.69" y="179.1431">- api/ depends on app + domain ONLY</text><text fill="#000000" font-family="Verdana" font-size="13" lengthAdjust="spacing" textLength="275.6216" x="164.69" y="194.9424">- api/adapter/desktop wires infrastructure</text><text fill="#000000" font-family="Verdana" font-size="13" lengthAdjust="spacing" textLength="213.605" x="164.69" y="210.7417">- Platform-specific sub-packages</text></g><!--entity Adapters--><g class="entity" data-entity="Adapters" data-source-line="21" data-uid="ent0009" id="entity_Adapters"><rect fill="#FFFFFF" height="47.0146" rx="2.5" ry="2.5" style="stroke:#000000;stroke-width:1;" width="102.5488" x="1205.73" y="331.5646"/><rect fill="#FFFFFF" height="10" style="stroke:#000000;stroke-width:1;" width="15" x="1288.2788" y="336.5646"/><rect fill="#FFFFFF" height="2" style="stroke:#000000;stroke-width:1;" width="4" x="1286.2788" y="338.5646"/><rect fill="#FFFFFF" height="2" style="stroke:#000000;stroke-width:1;" width="4" x="1286.2788" y="342.5646"/><text fill="#000000" font-family="Verdana" font-size="14" lengthAdjust="spacing" textLength="62.5488" x="1220.73" y="365.6398">Adapters</text></g><!--entity ConsoleWriter--><g class="entity" data-entity="ConsoleWriter" data-source-line="22" data-uid="ent0010" id="entity_ConsoleWriter"><rect fill="#FFFFFF" height="47.0146" rx="2.5" ry="2.5" style="stroke:#000000;stroke-width:1;" width="143.5166" x="1388.24" y="331.5646"/><rect fill="#FFFFFF" height="10" style="stroke:#000000;stroke-width:1;" width="15" x="1511.7566" y="336.5646"/><rect fill="#FFFFFF" height="2" style="stroke:#000000;stroke-width:1;" width="4" x="1509.7566" y="338.5646"/><rect fill="#FFFFFF" height="2" style="stroke:#000000;stroke-width:1;" width="4" x="1509.7566" y="342.5646"/><text fill="#000000" font-family="Verdana" font-size="14" lengthAdjust="spacing" textLength="103.5166" x="1403.24" y="365.6398">Console Writer</text></g><g class="entity" data-entity="GMN11" data-source-line="24" data-uid="ent0012" id="entity_GMN11"><path d="M870.51,318.4646 L870.51,391.6619 L1125.4846,391.6619 L1125.4846,328.4646 L1115.4846,318.4646 L870.51,318.4646" fill="#FFFFFF" style="stroke:#000000;stroke-width:1;"/><path d="M1115.4846,318.4646 L1115.4846,328.4646 L1125.4846,328.4646 L1115.4846,318.4646" fill="#FFFFFF" style="stroke:#000000;stroke-width:1;"/><text fill="#000000" font-family="Verdana" font-size="13" font-weight="bold" lengthAdjust="spacing" textLength="118.168" x="876.51" y="336.5344">Driven Adapters</text><text fill="#000000" font-family="Verdana" font-size="13" lengthAdjust="spacing" textLength="175.8555" x="876.51" y="352.3338">- Implements Output Ports</text><text fill="#000000" font-family="Verdana" font-size="13" lengthAdjust="spacing" textLength="191.2168" x="876.51" y="368.1331">- External system integration</text><text fill="#000000" font-family="Verdana" font-size="13" lengthAdjust="spacing" textLength="233.9746" x="876.51" y="383.9324">- Depends on Application + Domain</text></g><!--entity UseCases--><g class="entity" data-entity="UseCases" data-source-line="32" data-uid="ent0015" id="entity_UseCases"><rect fill="#FFFFFF" height="47.0146" rx="2.5" ry="2.5" style="stroke:#000000;stroke-width:1;" width="111.9141" x="35.04" y="520.6546"/><rect fill="#FFFFFF" height="10" style="stroke:#000000;stroke-width:1;" width="15" x="126.9541" y="525.6546"/><rect fill="#FFFFFF" height="2" style="stroke:#000000;stroke-width:1;" width="4" x="124.9541" y="527.6546"/><rect fill="#FFFFFF" height="2" style="stroke:#000000;stroke-width:1;" width="4" x="124.9541" y="531.6546"/><text fill="#000000" font-family="Verdana" font-size="14" lengthAdjust="spacing" textLength="71.9141" x="50.04" y="554.7298">Use Cases</text></g><!--entity Ports--><g class="entity" data-entity="Ports" data-source-line="33" data-uid="ent0016" id="entity_Ports"><rect fill="#FFFFFF" height="47.0146" rx="2.5" ry="2.5" style="stroke:#000000;stroke-width:1;" width="75.7246" x="227.14" y="520.6546"/><rect fill="#FFFFFF" height="10" style="stroke:#000000;stroke-width:1;" width="15" x="282.8646" y="525.6546"/><rect fill="#FFFFFF" height="2" style="stroke:#000000;stroke-width:1;" width="4" x="280.8646" y="527.6546"/><rect fill="#FFFFFF" height="2" style="stroke:#000000;stroke-width:1;" width="4" x="280.8646" y="531.6546"/><text fill="#000000" font-family="Verdana" font-size="14" lengthAdjust="spacing" textLength="35.7246" x="242.14" y="554.7298">Ports</text></g><!--entity Commands--><g class="entity" data-entity="Commands" data-source-line="34" data-uid="ent0017" id="entity_Commands"><rect fill="#FFFFFF" height="47.0146" rx="2.5" ry="2.5" style="stroke:#000000;stroke-width:1;" width="118.791" x="34.6" y="701.7546"/><rect fill="#FFFFFF" height="10" style="stroke:#000000;stroke-width:1;" width="15" x="133.391" y="706.7546"/><rect fill="#FFFFFF" height="2" style="stroke:#000000;stroke-width:1;" width="4" x="131.391" y="708.7546"/><rect fill="#FFFFFF" height="2" style="stroke:#000000;stroke-width:1;" width="4" x="131.391" y="712.7546"/><text fill="#000000" font-family="Verdana" font-size="14" lengthAdjust="spacing" textLength="78.791" x="49.6" y="735.8298">Commands</text></g><g class="entity" data-entity="GMN18" data-source-line="36" data-uid="ent0019" id="entity_GMN18"><path d="M383.01,499.6646 L383.01,588.6612 L604.9895,588.6612 L604.9895,509.6646 L594.9895,499.6646 L383.01,499.6646" fill="#FFFFFF" style="stroke:#000000;stroke-width:1;"/><path d="M594.9895,499.6646 L594.9895,509.6646 L604.9895,509.6646 L594.9895,499.6646" fill="#FFFFFF" style="stroke:#000000;stroke-width:1;"/><text fill="#000000" font-family="Verdana" font-size="13" font-weight="bold" lengthAdjust="spacing" textLength="145.355" x="389.01" y="517.7344">Orchestration Layer</text><text fill="#000000" font-family="Verdana" font-size="13" lengthAdjust="spacing" textLength="175.4937" x="389.01" y="533.5338">- Coordinates domain logic</text><text fill="#000000" font-family="Verdana" font-size="13" lengthAdjust="spacing" textLength="187.5098" x="389.01" y="549.3331">- Defines Input/Output Ports</text><text fill="#000000" font-family="Verdana" font-size="13" lengthAdjust="spacing" textLength="164.5122" x="389.01" y="565.1324">- DTOs (GreetCommand)</text><text fill="#000000" font-family="Verdana" font-size="13" lengthAdjust="spacing" textLength="5.9033" x="389.01" y="580.9317">-</text><text fill="#000000" font-family="Verdana" font-size="13" font-weight="bold" lengthAdjust="spacing" textLength="190.5059" x="399.4836" y="580.9317">Depends ONLY on Domain</text></g><!--entity VOs--><g class="entity" data-entity="VOs" data-source-line="45" data-uid="ent0022" id="entity_VOs"><rect fill="#FFFFFF" height="47.0146" rx="2.5" ry="2.5" style="stroke:#000000;stroke-width:1;" width="136.9473" x="1050.53" y="701.7546"/><rect fill="#FFFFFF" height="10" style="stroke:#000000;stroke-width:1;" width="15" x="1167.4773" y="706.7546"/><rect fill="#FFFFFF" height="2" style="stroke:#000000;stroke-width:1;" width="4" x="1165.4773" y="708.7546"/><rect fill="#FFFFFF" height="2" style="stroke:#000000;stroke-width:1;" width="4" x="1165.4773" y="712.7546"/><text fill="#000000" font-family="Verdana" font-size="14" lengthAdjust="spacing" textLength="96.9473" x="1065.53" y="735.8298">Value Objects</text></g><!--entity DomainError--><g class="entity" data-entity="DomainError" data-source-line="46" data-uid="ent0023" id="entity_DomainError"><rect fill="#FFFFFF" height="47.0146" rx="2.5" ry="2.5" style="stroke:#000000;stroke-width:1;" width="133.0645" x="1267.47" y="701.7546"/><rect fill="#FFFFFF" height="10" style="stroke:#000000;stroke-width:1;" width="15" x="1380.5345" y="706.7546"/><rect fill="#FFFFFF" height="2" style="stroke:#000000;stroke-width:1;" width="4" x="1378.5345" y="708.7546"/><rect fill="#FFFFFF" height="2" style="stroke:#000000;stroke-width:1;" width="4" x="1378.5345" y="712.7546"/><text fill="#000000" font-family="Verdana" font-size="14" lengthAdjust="spacing" textLength="93.0645" x="1282.47" y="735.8298">domain/error</text></g><!--entity Result--><g class="entity" data-entity="Result" data-source-line="47" data-uid="ent0024" id="entity_Result"><rect fill="#FFFFFF" height="47.0146" rx="2.5" ry="2.5" style="stroke:#000000;stroke-width:1;" width="104.9277" x="1066.54" y="861.8646"/><rect fill="#FFFFFF" height="10" style="stroke:#000000;stroke-width:1;" width="15" x="1151.4677" y="866.8646"/><rect fill="#FFFFFF" height="2" style="stroke:#000000;stroke-width:1;" width="4" x="1149.4677" y="868.8646"/><rect fill="#FFFFFF" height="2" style="stroke:#000000;stroke-width:1;" width="4" x="1149.4677" y="872.8646"/><text fill="#000000" font-family="Verdana" font-size="14" lengthAdjust="spacing" textLength="64.9277" x="1081.54" y="895.9398">Result[T]</text></g><g class="entity" data-entity="GMN25" data-source-line="49" data-uid="ent0026" id="entity_GMN25"><path d="M757.04,688.6646 L757.04,761.8619 L970.9643,761.8619 L970.9643,698.6646 L960.9643,688.6646 L757.04,688.6646" fill="#FFFFFF" style="stroke:#000000;stroke-width:1;"/><path d="M960.9643,688.6646 L960.9643,698.6646 L970.9643,698.6646 L960.9643,688.6646" fill="#FFFFFF" style="stroke:#000000;stroke-width:1;"/><text fill="#000000" font-family="Verdana" font-size="13" font-weight="bold" lengthAdjust="spacing" textLength="145.3423" x="763.04" y="706.7344">Business Logic Core</text><text fill="#000000" font-family="Verdana" font-size="13" lengthAdjust="spacing" textLength="154.6099" x="763.04" y="722.5337">- Pure domain concepts</text><text fill="#000000" font-family="Verdana" font-size="13" lengthAdjust="spacing" textLength="192.9243" x="763.04" y="738.3331">- ZERO external module deps</text><text fill="#000000" font-family="Verdana" font-size="13" lengthAdjust="spacing" textLength="157.3901" x="763.04" y="754.1324">- Shareable across apps</text></g><!--link API to GMN5--><g class="link" data-entity-1="API" data-entity-2="GMN5" data-source-line="12" data-uid="lnk7" id="link_API_GMN5"><path d="M799,174.8046 C799,180.0246 799,207.8746 799,207.8746 C799,207.8746 600.45,207.8746 455.62,207.8746" fill="none" id="API-GMN5" style="stroke:#000000;stroke-width:1;stroke-dasharray:7,7;"/></g><!--link Infrastructure to GMN11--><g class="link" data-entity-1="Infrastructure" data-entity-2="GMN11" data-source-line="24" data-uid="lnk13" id="link_Infrastructure_GMN11"><path d="M1611.67,354.3246 C1611.67,349.6746 1611.67,324.8746 1611.67,324.8746 C1611.67,324.8746 1305.75,324.8746 1125.9,324.8746" fill="none" id="Infrastructure-GMN11" style="stroke:#000000;stroke-width:1;stroke-dasharray:7,7;"/></g><!--link Application to GMN18--><g class="link" data-entity-1="Application" data-entity-2="GMN18" data-source-line="36" data-uid="lnk20" id="link_Application_GMN18"><path d="M684.45,543.8746 C679.67,543.8746 644.29,543.8746 605.29,543.8746" fill="none" id="Application-GMN18" style="stroke:#000000;stroke-width:1;stroke-dasharray:7,7;"/></g><!--link Domain to GMN25--><g class="link" data-entity-1="Domain" data-entity-2="GMN25" data-source-line="49" data-uid="lnk27" id="link_Domain_GMN25"><path d="M1481,724.5146 C1481,719.8346 1481,694.8746 1481,694.8746 C1481,694.8746 1147.81,694.8746 971.12,694.8746" fill="none" id="Domain-GMN25" style="stroke:#000000;stroke-width:1;stroke-dasharray:7,7;"/></g><!--link APIFacade to Application--><g class="link" data-entity-1="APIFacade" data-entity-2="Application" data-source-line="57" data-uid="lnk28" id="link_APIFacade_Application"><path d="M685,379.0146 C685,391.1396 685,406.8634 685,423.7823 C685,432.2417 685,441 685,449.7565 C685,450.8511 685,451.9457 685,453.0396 C685,453.5866 685,454.1334 685,454.68 C685,454.9533 685,472.2411 685,472.5143" fill="none" id="APIFacade-to-Application" style="stroke:#000000;stroke-width:1;"/><polygon fill="#000000" points="685,478.5143,689,469.5143,685,473.5143,681,469.5143,685,478.5143" style="stroke:#000000;stroke-width:1;"/><text fill="#000000" font-family="Verdana" font-size="13" lengthAdjust="spacing" textLength="108.0688" x="576" y="458.2944">re-exports types</text></g><!--link APIFacade to Domain--><g class="link" data-entity-1="APIFacade" data-entity-2="Domain" data-source-line="58" data-uid="lnk29" id="link_APIFacade_Domain"><path d="M696.89,378.9446 C696.89,410.9746 696.89,463.8746 696.89,463.8746 C696.89,463.8746 1440.27,463.8746 1440.27,463.8746 C1440.27,463.8746 1440.27,529.1246 1440.27,594.3746 C1440.27,610.6871 1440.27,626.9996 1440.27,642.2926 C1440.27,642.7705 1440.27,660.262 1440.27,660.7379" fill="none" id="APIFacade-to-Domain" style="stroke:#000000;stroke-width:1;"/><polygon fill="#000000" points="1440.27,666.7379,1444.27,657.7379,1440.27,661.7379,1436.27,657.7379,1440.27,666.7379" style="stroke:#000000;stroke-width:1;"/><text fill="#000000" font-family="Verdana" font-size="13" lengthAdjust="spacing" textLength="108.0688" x="1067.63" y="460.9444">re-exports types</text></g><!--link APIDesktop to Infrastructure--><g class="link" data-entity-1="APIDesktop" data-entity-2="Infrastructure" data-source-line="61" data-uid="lnk30" id="link_APIDesktop_Infrastructure"><path d="M718.81,182.8746 C963.42,182.8746 1612.33,182.8746 1612.33,182.8746 C1612.33,182.8746 1612.33,222.6246 1612.33,263.9284 C1612.33,266.5098 1612.33,269.0974 1612.33,271.6817 C1612.33,272.3278 1612.33,289.9883 1612.33,290.6338" fill="none" id="APIDesktop-to-Infrastructure" style="stroke:#000000;stroke-width:1;"/><polygon fill="#000000" points="1612.33,296.6338,1616.33,287.6338,1612.33,291.6338,1608.33,287.6338,1612.33,296.6338" style="stroke:#000000;stroke-width:1;"/><text fill="#000000" font-family="Verdana" font-size="13" lengthAdjust="spacing" textLength="95.8433" x="1155.29" y="179.9444">wires adapters</text></g><!--link APIDesktop to Application--><g class="link" data-entity-1="APIDesktop" data-entity-2="Application" data-source-line="62" data-uid="lnk31" id="link_APIDesktop_Application"><path d="M719.05,189.8746 C730.26,189.8746 737.85,189.8746 737.85,189.8746 C737.85,189.8746 737.85,543.8746 737.85,543.8746 C737.85,543.8746 726.2375,543.8746 713.8988,543.8746 C707.7294,543.8746 701.3784,543.8746 696.2067,543.8746 C695.5603,543.8746 694.9322,543.8746 694.3253,543.8746 C694.0218,543.8746 693.7236,543.8746 693.431,543.8746 C693.3578,543.8746 699.285,543.8746 699.2126,543.8746" fill="none" id="APIDesktop-to-Application" style="stroke:#000000;stroke-width:1;"/><polygon fill="#000000" points="693.2126,543.8746,702.2126,547.8746,698.2126,543.8746,702.2126,539.8746,693.2126,543.8746" style="stroke:#000000;stroke-width:1;"/><text fill="#000000" font-family="Verdana" font-size="13" lengthAdjust="spacing" textLength="115.2671" x="621.85" y="397.6744">creates use cases</text></g><!--link APIDesktop to APIFacade--><g class="link" data-entity-1="APIDesktop" data-entity-2="APIFacade" data-source-line="63" data-uid="lnk32" id="link_APIDesktop_APIFacade"><path d="M684.96,197.6446 C684.96,232.2546 684.96,290.3246 684.96,325.0946" fill="none" id="APIDesktop-to-APIFacade" style="stroke:#000000;stroke-width:1;"/><polygon fill="#000000" points="684.96,331.0946,688.96,322.0946,684.96,326.0946,680.96,322.0946,684.96,331.0946" style="stroke:#000000;stroke-width:1;"/><text fill="#000000" font-family="Verdana" font-size="13" lengthAdjust="spacing" textLength="96.2876" x="587.96" y="261.4444">uses API types</text></g><!--link Infrastructure to Application--><g class="link" data-entity-1="Infrastructure" data-entity-2="Application" data-source-line="65" data-uid="lnk33" id="link_Infrastructure_Application"><path d="M1620.071,354.8746 C1620.1031,354.8746 1620.1353,354.8746 1620.1675,354.8746 C1621.1973,354.8746 1622.2484,354.8746 1623.2712,354.8746 C1627.3625,354.8746 1631,354.8746 1631,354.8746 C1631,354.8746 1631,544.8746 1631,544.8746 C1631,544.8746 1400.01,544.8746 1166.3138,544.8746 C1049.4656,544.8746 931.9409,544.8746 842.2752,544.8746 C797.4423,544.8746 759.5741,544.8746 732.2376,544.8746 C718.5693,544.8746 707.534,544.8746 699.5775,544.8746 C697.5883,544.8746 695.7916,544.8746 694.1943,544.8746 C693.7949,544.8746 699.4081,544.8746 699.0338,544.8746" fill="none" id="Infrastructure-to-Application" style="stroke:#000000;stroke-width:1;"/><polygon fill="#000000" points="693.0338,544.8746,702.0338,548.8746,698.0338,544.8746,702.0338,540.8746,693.0338,544.8746" style="stroke:#000000;stroke-width:1;"/><text fill="#000000" font-family="Verdana" font-size="13" lengthAdjust="spacing" textLength="163.4775" x="1098.29" y="541.9444">implements Output Ports</text></g><!--link Infrastructure to Domain--><g class="link" data-entity-1="Infrastructure" data-entity-2="Domain" data-source-line="66" data-uid="lnk34" id="link_Infrastructure_Domain"><path d="M1612,417.04 C1612,418.1255 1612,419.2214 1612,420.3273 C1612,455.7155 1612,501.3502 1612,546.4684 C1612,636.7046 1612,724.8746 1612,724.8746 C1612,724.8746 1581.265,724.8746 1549.57,724.8746 C1533.7225,724.8746 1517.635,724.8746 1505.0294,724.8746 C1498.7266,724.8746 1499.2942,724.8746 1495.1976,724.8746" fill="none" id="Infrastructure-to-Domain" style="stroke:#000000;stroke-width:1;"/><polygon fill="#000000" points="1489.1976,724.8746,1498.1976,728.8746,1494.1976,724.8746,1498.1976,720.8746,1489.1976,724.8746" style="stroke:#000000;stroke-width:1;"/><text fill="#000000" font-family="Verdana" font-size="13" lengthAdjust="spacing" textLength="124.1094" x="1487" y="602.6544">uses Value Objects</text></g><!--link Application to Domain--><g class="link" data-entity-1="Application" data-entity-2="Domain" data-source-line="68" data-uid="lnk35" id="link_Application_Domain"><path d="M685,773.4827 C685,773.8505 685,774.2164 685,774.5803 C685,775.3079 685,776.0275 685,776.7386 C685,778.161 685,779.5498 685,780.9033 C685,783.6103 685,786.176 685,788.5854 C685,793.4042 685,797.5982 685,801.0485 C685,807.949 685,811.8746 685,811.8746 C685,811.8746 697.4375,811.8746 719.2031,811.8746 C721.9238,811.8746 724.7903,811.8746 727.7964,811.8746 C729.2995,811.8746 724.8375,811.8746 726.4096,811.8746" fill="none" id="Application-to-Domain" style="stroke:#000000;stroke-width:1;"/><polygon fill="#000000" points="732.4096,811.8746,723.4096,807.8746,727.4096,811.8746,723.4096,815.8746,732.4096,811.8746" style="stroke:#000000;stroke-width:1;"/><text fill="#000000" font-family="Verdana" font-size="13" lengthAdjust="spacing" textLength="81.0723" x="910.56" y="808.9444">orchestrates</text></g><!--link APIFacade to Infrastructure--><g class="link" data-entity-1="APIFacade" data-entity-2="Infrastructure" data-source-line="71" data-uid="lnk36" id="link_APIFacade_Infrastructure"><path d="M707.78,378.9046 C707.78,400.1446 707.78,427.8746 707.78,427.8746 C707.78,427.8746 1571.38,427.8746 1571.38,427.8746 C1571.38,427.8746 1571.38,423.3121 1571.38,416.4684 C1571.38,416.2545 1571.38,422.0384 1571.38,421.8201" fill="none" id="APIFacade-to-Infrastructure" style="stroke:#FF0000;stroke-width:1;stroke-dasharray:7,7;"/><polygon fill="#FF0000" points="1571.38,415.8201,1567.38,424.8201,1571.38,420.8201,1575.38,424.8201,1571.38,415.8201" style="stroke:#FF0000;stroke-width:1;"/><text fill="#000000" font-family="Verdana" font-size="13" lengthAdjust="spacing" textLength="100.6748" x="1039.9802" y="408.9444">&#10060; FORBIDDEN</text><text fill="#000000" font-family="Verdana" font-size="13" lengthAdjust="spacing" textLength="161.5352" x="1009.55" y="424.7438">Use api/adapter/desktop</text></g><g class="legend" data-source-line="73"><rect fill="none" height="299.249" rx="7.5" ry="7.5" style="stroke:#000000;stroke-width:1;" width="556" x="1063" y="943.8746"/><text fill="#000000" font-family="Verdana" font-size="14" font-weight="bold" lengthAdjust="spacing" textLength="274.5859" x="1068" y="962.9498">Key Architectural Rules (LIBRARY)</text><text fill="#000000" font-family="Verdana" font-size="14" lengthAdjust="spacing" textLength="546" x="1068" y="979.9645">&#9552;&#9552;&#9552;&#9552;&#9552;&#9552;&#9552;&#9552;&#9552;&#9552;&#9552;&#9552;&#9552;&#9552;&#9552;&#9552;&#9552;&#9552;&#9552;&#9552;&#9552;&#9552;&#9552;&#9552;&#9552;&#9552;&#9552;&#9552;&#9552;&#9552;&#9552;&#9552;&#9552;&#9552;&#9552;&#9552;&#9552;&#9552;&#9552;</text><text fill="#000000" font-family="Verdana" font-size="14" lengthAdjust="spacing" textLength="19" x="1068" y="996.9791">&#9989;</text><text fill="#000000" font-family="Verdana" font-size="14" font-weight="bold" lengthAdjust="spacing" textLength="275.1465" x="1091.9219" y="996.9791">api/ &#8594; Application + Domain ONLY</text><text fill="#000000" font-family="Verdana" font-size="14" lengthAdjust="spacing" textLength="234.3086" x="1082.7656" y="1013.9938">(does NOT import Infrastructure)</text><text fill="#000000" font-family="Verdana" font-size="14" lengthAdjust="spacing" textLength="340.8359" x="1068" y="1031.0084">&#9989; api/adapter/desktop &#8594; ALL (platform wiring)</text><text fill="#000000" font-family="Verdana" font-size="14" lengthAdjust="spacing" textLength="297.8789" x="1068" y="1048.023">&#9989; Infrastructure &#8594; Application + Domain</text><text fill="#000000" font-family="Verdana" font-size="14" lengthAdjust="spacing" textLength="178.8926" x="1068" y="1065.0377">&#9989; Application &#8594; Domain</text><text fill="#000000" font-family="Verdana" font-size="14" lengthAdjust="spacing" textLength="4.9219" x="1068" y="1082.0523">&#160;</text><text fill="#000000" font-family="Verdana" font-size="14" lengthAdjust="spacing" textLength="19" x="1068" y="1099.067">&#10060;</text><text fill="#000000" font-family="Verdana" font-size="14" font-weight="bold" lengthAdjust="spacing" textLength="23.7549" x="1091.9219" y="1099.067">NO</text><text fill="#000000" font-family="Verdana" font-size="14" lengthAdjust="spacing" textLength="148.8594" x="1120.5986" y="1099.067">api/ &#8594; Infrastructure</text><text fill="#000000" font-family="Verdana" font-size="14" lengthAdjust="spacing" textLength="335.5283" x="1082.7656" y="1116.0816">(use api/adapter/desktop sub-package instead)</text><text fill="#000000" font-family="Verdana" font-size="14" lengthAdjust="spacing" textLength="19" x="1068" y="1133.0963">&#10060;</text><text fill="#000000" font-family="Verdana" font-size="14" font-weight="bold" lengthAdjust="spacing" textLength="23.7549" x="1091.9219" y="1133.0963">NO</text><text fill="#000000" font-family="Verdana" font-size="14" lengthAdjust="spacing" textLength="139.207" x="1120.5986" y="1133.0963">Domain &#8594; anything</text><text fill="#000000" font-family="Verdana" font-size="14" lengthAdjust="spacing" textLength="4.9219" x="1068" y="1150.1109">&#160;</text><text fill="#000000" font-family="Verdana" font-size="14" font-weight="bold" lengthAdjust="spacing" textLength="171.2061" x="1068" y="1167.1256">Library vs Application</text><text fill="#000000" font-family="Verdana" font-size="14" lengthAdjust="spacing" textLength="546" x="1068" y="1184.1402">&#9552;&#9552;&#9552;&#9552;&#9552;&#9552;&#9552;&#9552;&#9552;&#9552;&#9552;&#9552;&#9552;&#9552;&#9552;&#9552;&#9552;&#9552;&#9552;&#9552;&#9552;&#9552;&#9552;&#9552;&#9552;&#9552;&#9552;&#9552;&#9552;&#9552;&#9552;&#9552;&#9552;&#9552;&#9552;&#9552;&#9552;&#9552;&#9552;</text><text fill="#000000" font-family="Verdana" font-size="14" lengthAdjust="spacing" textLength="347.3887" x="1068" y="1201.1549">&#8226; Library: domain, application, infrastructure, api</text><text fill="#000000" font-family="Verdana" font-size="14" lengthAdjust="spacing" textLength="299.5098" x="1068" y="1218.1695">&#8226; App: domain, application, infrastructure,</text><text fill="#000000" font-family="Verdana" font-size="14" lengthAdjust="spacing" textLength="165.334" x="1102.4531" y="1235.1842">presentation, bootstrap</text></g><!--SRC=[nPRDRYD5483lynH58e5jrfkWXTLk3aYEnmOBoxPCsDN2ScZFLEmcu-vMTqysrWg92vmu82HkSE7HyYHK_tWo7ayaJX1PYhghkhhggv-U3-m6jmYgO5maveOBnJJRGi45sfr2aDfkP4qWP8u65Rmuhsrg9cxSvYVdvqbYkIqGFkrFsGurJFbACxs3WSust69cIurlnPTunzPIi08w2xh1m8Smo9cog4qNFePXWKpG_pHDaqInx8Qj4Ku6Yma4evr5kIfu1cEMiHox9y0CEEdfU3ow7ARmFW78v5P9WSB22LFyRAyJZXpBMRZ-ZAAxiLBjrTEm97qXBOBcwuq5UUr4j0VGwqLNHi9Ib0l9XUtrlAWFI-pZdVBnvN9BWC-OKgJCB9S275uJDPq7aAD2aHiW6UbH-E4Gp6VJDpMzXgVmZciqmCMrPiRgqXEEwek2sMkfjtsZCEFNvAOfL_q8rDrDz_d0aXzhd2S7fW9opwCXE1qz7pyRZvkqzuaC2EFYK6KeXP5K9AyrbKIm7RV2pX7koN5qlLwg-IsAweeA-sIh2gffGTZdfLMb1LzZKJgw8sLNUMPdB6u9dCMrzYc96kb37WQrV54v-dmyXgsk-y2ildiwUZ7-RFIo2UmRWp1a1WCnMld5eOwFmCltiHpWt6uPUHn1XiLnoJvu4W7EgIUHgDPyhY0EfTGv5ypYldYXa6kULOokQKAuaY2-PosOqwkvWSuN6j56ZxfHGecBW5rXEyg1gx-wbMoGrw363MhtySlHyoRFLwme4UQh7sZQ12QlvWrYiHrHQrctE7BhGyqbchAmtrrzxzN2wWXjLHYEwcLf71e3KyUBG6gig2vStqIScHGPgWhOjwFb771Vd5kPbzGWD1BsygytJ2DRqIRBj2JpD2EQBVnHh5qK6QVaz64mdO9oCmacizU3PGgTZA92tJU8DBtNtQGQYT3FvJlH__oWOYz0FyomCB2E3yHijEYIGwHUJQgCXhgRLe2tg7TsGmwGGuwruUuwxqsSk9Nrnj2vYFEExGTBov7323B2vgguf3RBV6Ur7QcYkd2AuJc9GJGyQB-5Fp9q7ZbSCVEN7LHiajGj7nsGLTC6m6EfLpodbCVtWtA_WyvmERcQ30VJUeAV-dfzUeJqL6DEXk__-XN6y-Nb94r7ixV2JQMMvoP92boxclF64bVmN-71yqxLkwJQfUwVJYwNW-MRhY__-pz- - -z_xju_VoOV_GDx_yllhHFT3wBOez399Va-cr-vb58A6xIwqMJRI-pjKyTrL7ntNQtwBWjd6jmVSoTgrqLEDGgTb3BLwytclHvKSRMyaD0fstDO_mgWzu-UGUQdSyrk1ECiCn5QDV79td_FtHuyRVzlXd_wU_-PUH67wnEeVMazQNmSEI6FvoY6VtSc47L_YiOFzNbKMqbfNJUgX9eYj4Ro3m00]--></g></svg>